<svg id="Groupe_1389" data-name="Groupe 1389" xmlns="http://www.w3.org/2000/svg" xmlns:xlink="http://www.w3.org/1999/xlink" width="317.641" height="495.954" viewBox="0 0 317.641 495.954">
  <defs>
    <clipPath id="clip-path">
      <rect id="Rectangle_555" data-name="Rectangle 555" width="317.641" height="495.954" fill="#10adf4"/>
    </clipPath>
  </defs>
  <g id="Groupe_1389-2" data-name="Groupe 1389" clip-path="url(#clip-path)">
    <path id="Tracé_1143" data-name="Tracé 1143" d="M156.928,269.054c-66.88,0-125.311-32.931-156.5-81.7,7.392,33.864,26.093,63.638,52.033,85.622a173.363,173.363,0,0,0,81.349,33.491c18.807,2.211,27.22,2.211,46.264,0a174.315,174.315,0,0,0,105.5-55.425,154.823,154.823,0,0,0,31.618-70.1c-30.051,52.249-90.526,88.109-160.268,88.109" transform="translate(0.445 187.829)" fill="#10adf4"/>
    <path id="Tracé_1144" data-name="Tracé 1144" d="M157.374,241.386c-71.128,0-130.724-44.87-145.975-104.788A206.238,206.238,0,0,0,0,176.248c21.118,60.232,83.562,104.1,157.374,104.1,75.842,0,139.794-46.276,159.12-109.082A215.537,215.537,0,0,0,304.3,132.552c-13.526,61.934-74.211,108.834-146.927,108.834" transform="translate(0 137.595)" fill="#10adf4"/>
    <path id="Tracé_1145" data-name="Tracé 1145" d="M144.293,192.153c-56.882,0-104.509-36.079-116.3-84.126-5.468,8.813-10.635,17.688-15.389,26.641C25.28,189.648,79.488,231.1,144.293,231.1c66.226,0,121.3-43.351,132.355-100.16-4.763-8.737-9.933-17.4-15.351-26.007-10.463,49.59-58.914,87.218-117,87.218" transform="translate(13.08 108.927)" fill="#10adf4"/>
    <path id="Tracé_1146" data-name="Tracé 1146" d="M128.31,138.57c-39.045,0-72.206-22.906-83.923-54.55C38.858,91.907,33.369,99.815,28,107.765c11.686,40.072,52.168,69.762,100.311,69.762,49.233,0,90.5-31.05,101.1-72.516q-8.034-11.8-16.3-23.509c-10.84,32.947-44.719,57.067-84.795,57.067" transform="translate(29.064 84.604)" fill="#10adf4"/>
    <path id="Tracé_1147" data-name="Tracé 1147" d="M111.37,85.493C90.1,85.493,71.538,75.07,61.5,59.636q-8.34,12.6-17.179,25.182v.012C55.607,108.109,81.4,124.44,111.37,124.44c30.952,0,57.416-17.438,68.073-41.947-5.788-8.305-11.458-16.6-16.914-24.9-9.681,16.567-28.967,27.9-51.159,27.9" transform="translate(46.004 59.781)" fill="#10adf4"/>
    <path id="Tracé_1148" data-name="Tracé 1148" d="M61.113,92.3a44.339,44.339,0,0,0,32.823,14.014c14.15,0,26.666-6.285,34.386-15.895C111.377,61.245,98.8,31.738,95.729,1.2,95.415.74,95.136.336,94.9,0,91.987,31.626,78.84,62.136,61.113,92.3" transform="translate(63.438)" fill="#10adf4"/>
  </g>
</svg>
